<?xml version="1.0" encoding="UTF-8" standalone="no"?>
<!-- Created with Inkscape (http://www.inkscape.org/) -->

<svg
   xmlns:dc="http://purl.org/dc/elements/1.1/"
   xmlns:cc="http://creativecommons.org/ns#"
   xmlns:rdf="http://www.w3.org/1999/02/22-rdf-syntax-ns#"
   xmlns:svg="http://www.w3.org/2000/svg"
   xmlns="http://www.w3.org/2000/svg"
   xmlns:sodipodi="http://sodipodi.sourceforge.net/DTD/sodipodi-0.dtd"
   xmlns:inkscape="http://www.inkscape.org/namespaces/inkscape"
   width="960.23621"
   height="719.29132"
   id="svg2"
   sodipodi:version="0.32"
   inkscape:version="0.48.3.1 r9886"
   sodipodi:docname="background.svg"
   inkscape:output_extension="org.inkscape.output.svg.inkscape"
   inkscape:export-filename="/home/ralsina/Desktop/proyectos/rst/trunk/rst2pdf/tests/input/background.png"
   inkscape:export-xdpi="120"
   inkscape:export-ydpi="120"
   version="1.0">
  <defs
     id="defs4">
    <linearGradient
       id="linearGradient3155">
      <stop
         style="stop-color:#000000;stop-opacity:1;"
         offset="0"
         id="stop3157" />
      <stop
         id="stop3163"
         offset="0.06521739"
         style="stop-color:#000000;stop-opacity:0.49803922;" />
      <stop
         style="stop-color:#000000;stop-opacity:0.24705882;"
         offset="0.14650284"
         id="stop3165" />
      <stop
         style="stop-color:#000000;stop-opacity:0;"
         offset="1"
         id="stop3159" />
    </linearGradient>
    <inkscape:perspective
       sodipodi:type="inkscape:persp3d"
       inkscape:vp_x="0 : 526.18109 : 1"
       inkscape:vp_y="0 : 1000 : 0"
       inkscape:vp_z="744.09448 : 526.18109 : 1"
       inkscape:persp3d-origin="372.04724 : 350.78739 : 1"
       id="perspective10" />
  </defs>
  <sodipodi:namedview
     id="base"
     pagecolor="#ffffff"
     bordercolor="#666666"
     borderopacity="1.0"
     gridtolerance="10000"
     guidetolerance="10"
     objecttolerance="10"
     inkscape:pageopacity="0.0"
     inkscape:pageshadow="2"
     inkscape:zoom="0.61101806"
     inkscape:cx="438.73117"
     inkscape:cy="269.0955"
     inkscape:document-units="mm"
     inkscape:current-layer="layer1"
     showgrid="false"
     inkscape:window-width="1440"
     inkscape:window-height="842"
     inkscape:window-x="738"
     inkscape:window-y="208"
     units="mm"
     inkscape:window-maximized="0" />
  <metadata
     id="metadata7">
    <rdf:RDF>
      <cc:Work
         rdf:about="">
        <dc:format>image/svg+xml</dc:format>
        <dc:type
           rdf:resource="http://purl.org/dc/dcmitype/StillImage" />
      </cc:Work>
    </rdf:RDF>
  </metadata>
  <g
     inkscape:label="Layer 1"
     inkscape:groupmode="layer"
     id="layer1"
     transform="translate(0,400.39368)">
    <g
       transform="matrix(0.79611221,0,0,0.79554,466.71782,-1037.6643)"
       id="layer1-3"
       inkscape:label="レイヤー 1">
      <g
         transform="matrix(0.2309647,0,0,0.2309647,483.52852,671.52202)"
         id="g3187">
        <path
           d="m 173.76722,754.13834 36.22758,0 0,187.43743 -36.22758,0 0,-187.43743 z"
           style="fill:#ff6410;fill-opacity:1;fill-rule:nonzero;stroke:#ff6410;stroke-width:0.0727541px;stroke-linecap:round;stroke-linejoin:round;stroke-opacity:1;stroke-dasharray:none"
           id="2"
           inkscape:connector-curvature="0" />
        <path
           d="m 236.47868,754.13834 36.16076,0 0,187.43743 -36.16076,0 0,-187.43743 z"
           style="fill:#ff6410;fill-opacity:1;fill-rule:nonzero;stroke:#ff6410;stroke-width:0.0727541px;stroke-linecap:round;stroke-linejoin:round;stroke-opacity:1;stroke-dasharray:none"
           id="3"
           inkscape:connector-curvature="0" />
        <path
           d="m 364.59561,786.53271 0,155.04306 -36.15393,0 0,-155.04306 -32.01249,0 0,-32.39437 101.27116,0 0,32.39437 -33.10474,0 z"
           style="fill:#ff6410;fill-opacity:1;fill-rule:nonzero;stroke:#ff6410;stroke-width:0.0727541px;stroke-linecap:round;stroke-linejoin:round;stroke-opacity:1;stroke-dasharray:none"
           id="4"
           inkscape:connector-curvature="0" />
        <path
           d="m 147.28334,941.79028 0,-187.21637 -36.3079,0 -108.6896726,188.45621 39.2834106,0 69.479912,-124.25019 0,123.01035 36.01318,0 z"
           style="fill:#ff6410;fill-opacity:1;fill-rule:nonzero;stroke:#ff6410;stroke-width:0.0727541px;stroke-linecap:round;stroke-linejoin:round;stroke-opacity:1;stroke-dasharray:none"
           id="5"
           inkscape:connector-curvature="0" />
        <path
           d="m 315.92342,817.46639 0,0 0,0 0,0 0,0 0,0 z"
           style="fill:#ff630f;fill-opacity:1;fill-rule:nonzero;stroke:#ff630f;stroke-width:0.0727541px;stroke-linecap:round;stroke-linejoin:round;stroke-opacity:1;stroke-dasharray:none"
           id="6"
           inkscape:connector-curvature="0" />
        <path
           d="m 75.980859,904.81214 0,0 0,0 0,0 0,0 0,0 z"
           style="fill:#ff630f;fill-opacity:1;fill-rule:nonzero;stroke:#ff630f;stroke-width:0.0727541px;stroke-linecap:round;stroke-linejoin:round;stroke-opacity:1;stroke-dasharray:none"
           id="7"
           inkscape:connector-curvature="0" />
        <path
           d="m 215.52345,914.85744 -5.36105,1.94352 -16.37148,4.95891 -21.16963,4.89191 -20.01034,2.74766 -18.62309,0.80412 -16.807,-1.27333 -14.62245,-3.2165 -11.928462,-5.16004 -7.130138,-4.95916 -1.876396,-2.14432 0,0.93814 0,4.28899 0.938064,4.15485 0,0.80407 0.938332,2.47956 5.160014,6.70133 10.474247,6.91573 14.113019,4.42293 17.39005,2.14451 19.93663,-0.67019 22.11458,-2.74757 23.57546,-5.29399 18.47571,-5.6292 6.03124,-2.21157 6.03129,-2.21133 17.82552,-7.63955 21.4646,-11.13778 18.69679,-12.00876 15.50031,-12.59191 11.92845,-12.73938 8.00133,-12.59194 3.55177,-11.94169 0,-8.44383 -0.93813,-2.54658 0,-0.80412 -1.94344,-3.68567 -2.61349,-3.4178 -0.67012,-0.67006 0,2.81454 -2.27845,8.36998 -5.83025,11.64711 -9.16747,11.86807 -12.07584,11.71399 -14.69613,11.35888 -17.169,10.76917 -19.35355,9.90451 -15.71475,6.70143 -5.36105,1.94344 0,0 z"
           style="fill:#ff6410;fill-opacity:1;fill-rule:nonzero;stroke:#ff6410;stroke-width:0.0727541px;stroke-linecap:round;stroke-linejoin:round;stroke-opacity:1;stroke-dasharray:none"
           id="8"
           inkscape:connector-curvature="0" />
        <path
           d="m 314.90484,839.8825 8.14889,-2.94863 -7.13031,-19.65512 0.6702,1.74222 0.93832,9.17434 -1.80955,9.67662 -0.73703,2.01057 0,0 z"
           style="fill:#ff6410;fill-opacity:1;fill-rule:nonzero;stroke:#ff6410;stroke-width:0.0727541px;stroke-linecap:round;stroke-linejoin:round;stroke-opacity:1;stroke-dasharray:none"
           id="9"
           inkscape:connector-curvature="0" />
        <path
           d="m 75.91374,904.59772 7.123541,19.72197 8.148924,-2.94843 -1.340213,-0.80435 -3.819832,-2.61341 -4.288802,-3.95384 -3.417794,-4.42294 -1.943436,-3.61862 -0.669996,-1.34034 0,0 z"
           style="fill:#ff6410;fill-opacity:1;fill-rule:nonzero;stroke:#ff6410;stroke-width:0.0727541px;stroke-linecap:round;stroke-linejoin:round;stroke-opacity:1;stroke-dasharray:none"
           id="10"
           inkscape:connector-curvature="0" />
        <path
           d="m 184.6034,829.91089 5.36107,-1.94352 16.36467,-5.02603 21.02911,-5.09289 20.0035,-3.08283 18.40865,-1.27326 16.65963,0.73722 14.33427,2.61351 11.78773,4.48999 6.83543,4.42296 1.87639,1.87638 0,-0.93833 -1.34043,-9.10034 -0.66992,-0.8712 -0.93835,-2.74759 -5.49513,-7.27773 -10.68866,-7.71321 -14.40802,-5.16023 -17.6045,-2.68044 -20.15772,0 -22.18825,2.41261 -23.71605,5.02606 -18.5562,5.562 -6.03124,2.21144 -6.03122,2.27847 -17.75187,7.64631 -21.31708,11.42587 -18.54939,12.37059 -15.352903,13.18178 -11.71404,13.31551 -7.713208,13.3223 -3.283807,12.73949 0.670201,9.10035 1.005168,2.68057 0,0.87118 2.144495,4.08784 2.747577,3.81978 0.670185,0.67022 0,-2.61365 2.412406,-7.79368 6.098298,-11.06391 9.314876,-11.20482 12.297092,-11.28498 14.91042,-10.91654 17.24268,-10.48102 19.35354,-9.68346 15.78842,-6.63429 5.36129,-1.94352 0,0 z"
           style="fill:#ffffff;fill-opacity:1;fill-rule:nonzero;stroke:#ffffff;stroke-width:0.0727541px;stroke-linecap:round;stroke-linejoin:round;stroke-opacity:1;stroke-dasharray:none"
           id="11"
           inkscape:connector-curvature="0" />
      </g>
    </g>
    <rect
       style="fill:none;stroke:#000000;stroke-width:0.20712139;stroke-miterlimit:4;stroke-opacity:1;stroke-dasharray:none;stroke-dashoffset:0"
       id="rect3001"
       width="960.02911"
       height="35.225948"
       x="0.10356069"
       y="283.56815" />
    <rect
       style="fill:none;stroke:#000000;stroke-width:0.20712139;stroke-miterlimit:4;stroke-opacity:1;stroke-dasharray:none;stroke-dashoffset:0"
       id="rect3001-0"
       width="960.02911"
       height="35.225948"
       x="0.10356069"
       y="-400.29013" />
    <rect
       style="fill:none;stroke:#000000;stroke-width:0.34834674;stroke-miterlimit:4;stroke-opacity:1;stroke-dasharray:none;stroke-dashoffset:0"
       id="rect3816"
       width="35.084721"
       height="718.94299"
       x="0.17417337"
       y="-400.21951" />
    <rect
       style="fill:none;stroke:#000000;stroke-width:0.34834677;stroke-miterlimit:4;stroke-opacity:1;stroke-dasharray:none;stroke-dashoffset:0"
       id="rect3816-6"
       width="35.084724"
       height="718.94299"
       x="924.97729"
       y="-400.21951" />
    <rect
       style="fill:none;stroke:#000000;stroke-width:0.32257378;stroke-miterlimit:4;stroke-opacity:1;stroke-dasharray:none;stroke-dashoffset:0"
       id="rect3836"
       width="29.677427"
       height="29.677425"
       x="55.000725"
       y="134.80078" />
    <rect
       style="fill:none;stroke:#000000;stroke-width:0.3797881;stroke-miterlimit:4;stroke-opacity:1;stroke-dasharray:none;stroke-dashoffset:0"
       id="rect3842"
       width="39.620213"
       height="39.620213"
       x="88.423859"
       y="134.87625" />
    <path
       style="fill:none;stroke:#000000;stroke-width:0.35433072;stroke-miterlimit:4;stroke-opacity:1;stroke-dasharray:none;stroke-dashoffset:0"
       id="path3859"
       d="m 56.850943,146.23096 c 0.066,-0.30847 0.15826,-0.61037 0.26564,-0.9067 0.0946,-0.3091 0.24099,-0.59741 0.37557,-0.89012 0.12695,-0.27192 0.28504,-0.52522 0.45369,-0.77257 0.46441,-0.72055 0.97267,-0.80461 1.85195,-1.30326 0.32423,-0.0853 0.66166,-0.089 0.99468,-0.0939 0.36393,-0.013 0.7261,-7.8e-4 1.08383,0.0695 0.3754,0.0841 0.66167,0.32525 0.93097,0.58565 0.2201,0.24687 0.40034,0.52572 0.58298,0.80064 0.17483,0.28691 0.34364,0.57305 0.46969,0.88528 0.12036,0.36134 0.15967,0.74137 0.22212,1.11511 0.0823,0.41633 0.10929,0.83936 0.12676,1.26243 0.0106,0.44775 0.0228,0.89627 0.003,1.34385 -0.0105,0.32696 -0.09,0.64523 -0.14233,0.96672 -0.0199,0.24791 -0.10706,0.48009 -0.20861,0.70472 -0.12637,0.22644 -0.25719,0.4509 -0.3949,0.67067 -0.10296,0.19838 -0.25464,0.3545 -0.41117,0.50981 -0.14828,0.16356 -0.29288,0.33068 -0.4536,0.48233 -0.22627,0.20869 -0.47314,0.39285 -0.70566,0.59415 -0.26459,0.22584 -0.53856,0.43956 -0.81345,0.65259 -0.28968,0.2241 -0.60837,0.40521 -0.90418,0.62056 -0.2668,0.21607 -0.56131,0.39304 -0.84271,0.58859 -0.64944,0.49831 -1.38758,0.8629 -2.09663,1.26656 2.89142,-1.65801 0.0951,-0.0553 -0.21824,0.12795 -0.40026,0.23411 0.80306,-0.46386 1.2065,-0.69245 0.0278,-0.0157 -0.0517,0.0377 -0.0793,0.0538 -0.97707,0.56959 -0.94077,0.54874 -1.4586,0.84128 -0.19181,0.0676 -0.37642,0.15236 -0.56533,0.22759 -0.10965,0.0405 -0.35464,0.2494 -0.47229,0.12693 -0.0234,-0.0244 -0.0341,-0.0584 -0.0511,-0.0877 0.003,-0.0414 -0.011,-0.0887 0.0105,-0.12434 0.0227,-0.0377 0.071,-0.0522 0.10921,-0.074 1.02588,-0.58649 1.17146,-0.71344 1.98207,-1.02832 0.0641,-0.0205 0.12693,-0.0458 0.19241,-0.0614 0.11819,-0.0282 0.38214,-0.062 0.50032,-0.0797 0.25199,-0.0376 0.50308,-0.0768 0.75591,-0.10857 0.4218,-0.0437 0.84599,-0.0761 1.26953,-0.0475 0.5488,0.023 1.09183,0.0787 1.63451,0.1615 0.55132,0.0336 0.98148,0.33706 1.46247,0.5744 1.156,0.50164 2.32447,0.97352 3.49112,1.45018 0.0751,0.032 0.870366,0.37272 1.004836,0.42309 0.31079,0.11642 0.23313,0.16705 0.35108,0.0127 0,0 -1.199696,0.93362 -1.199696,0.93362 l 0,0 c -0.46115,-0.14676 -0.87315,-0.42056 -1.32648,-0.58743 -1.17423,-0.49293 -2.36592,-0.94194 -3.54456,-1.42386 -0.47222,-0.21874 -0.92241,-0.48775 -1.45317,-0.52828 -0.54096,-0.0834 -1.08469,-0.12358 -1.63166,-0.14318 -0.4185,-0.006 -0.83713,0.0157 -1.25276,0.0664 -0.4816,0.0633 -0.97438,0.11386 -1.43224,0.28336 -0.11812,0.0468 -0.2472,0.0965 -0.36367,0.14769 -0.059,0.0259 -0.23062,0.11454 -0.17553,0.0811 0.37817,-0.22974 0.76381,-0.44697 1.14572,-0.67045 -0.0347,0.0184 -0.0649,0.0543 -0.10412,0.0551 -0.0333,6.4e-4 -0.0572,-0.0343 -0.0858,-0.0514 -0.0124,-0.0156 -0.032,-0.0275 -0.0371,-0.0468 -0.003,-0.0127 0.0368,-0.0193 0.089,-0.0417 0.10852,-0.0466 0.21077,-0.10656 0.32104,-0.14928 0.18574,-0.0804 0.37908,-0.14467 0.55657,-0.24263 0.48425,-0.26473 0.26756,-0.14722 -1.1351,0.66346 -0.028,0.0162 0.0539,-0.0356 0.0817,-0.0521 0.45977,-0.27137 0.93189,-0.52257 1.38098,-0.81127 0.0698,-0.0449 -3.62633,2.10187 0.21763,-0.12116 -2.30672,1.34063 -0.9556,0.60065 -0.47415,0.22735 0.27529,-0.20044 0.56692,-0.37511 0.84029,-0.57831 0.27802,-0.2443 0.61546,-0.4029 0.91048,-0.62581 0.27265,-0.21116 0.54231,-0.42547 0.81093,-0.63977 0.22439,-0.20927 0.47497,-0.38524 0.69884,-0.59501 0.17213,-0.13376 0.31721,-0.29986 0.45329,-0.46905 0.15078,-0.15486 0.32955,-0.28463 0.42702,-0.48359 0.14514,-0.21151 0.2628,-0.4397 0.40364,-0.65406 0.10992,-0.20606 0.20195,-0.42988 0.22645,-0.66344 0.0507,-0.32124 0.14394,-0.63528 0.16533,-0.96068 0.029,-0.443 0.009,-0.88746 0.003,-1.33107 -0.0153,-0.41682 -0.0415,-0.83376 -0.11998,-1.24429 -0.062,-0.36268 -0.10494,-0.73034 -0.21423,-1.08303 -0.11998,-0.30349 -0.28241,-0.58154 -0.45303,-0.8589 -0.17707,-0.26536 -0.35362,-0.53348 -0.56381,-0.77402 -0.25386,-0.2427 -0.52823,-0.45027 -0.88395,-0.51052 -0.35284,-0.0557 -0.70847,-0.0572 -1.06498,-0.046 -0.32488,0.0111 -0.65988,0.0181 -0.96322,0.1483 0.38985,-0.22923 0.77977,-0.45833 1.16954,-0.68768 0.0372,-0.0219 -0.0759,0.0413 -0.11181,0.0653 -0.14647,0.0981 -0.25124,0.23423 -0.34561,0.38098 -0.16197,0.24621 -0.33873,0.48195 -0.46487,0.75037 -0.13106,0.29329 -0.29263,0.57417 -0.38527,0.88283 -0.10758,0.28435 -0.1986,0.57398 -0.2649,0.87074 0,0 -1.36278,0.67018 -1.36278,0.67018 z"
       inkscape:connector-curvature="0" />
    <path
       style="fill:none;stroke:#000000;stroke-width:0.35433072;stroke-miterlimit:4;stroke-opacity:1;stroke-dasharray:none;stroke-dashoffset:0"
       id="path3861"
       d="m 76.460879,141.88709 c -0.32019,0.51183 -0.67191,1.00327 -1.04139,1.48046 -0.46897,0.57919 -0.9424,1.15458 -1.39993,1.74293 -0.35396,0.44519 -0.72359,0.87742 -1.10555,1.29873 -0.32262,0.36565 -0.66558,0.71162 -1.01307,1.05343 -0.39774,0.39556 -0.80978,0.77602 -1.234,1.14294 -0.34943,0.27387 -0.6923,0.55566 -1.03586,0.83677 -0.26613,0.21141 -0.53014,0.42528 -0.79332,0.64033 -0.0822,0.0725 -0.11874,0.0991 -0.18705,0.1778 -0.0153,0.0176 -0.0274,0.0378 -0.0419,0.0562 -0.003,0.004 -0.0146,0.0107 -0.0101,0.01 0.10912,-0.0267 -0.10133,-0.0288 0.14469,-0.005 0.7873,0.0733 1.57783,-0.003 2.36496,-0.0422 1.827,-0.1068 3.65638,-0.15033 5.48389,-0.2485 1.65252,-0.10789 3.30021,-0.31103 4.92729,-0.6198 0.4426,-0.0855 0.86614,-0.20702 1.30725,-0.0683 0.31851,0.0851 0.62817,0.20438 0.95224,0.26739 0.55567,-0.12708 0.20693,-0.0568 -1.1479,0.65473 -0.0113,0.006 0.0257,-0.0213 0.02,-0.0328 -0.0302,-0.0606 -0.0791,-0.10999 -0.11865,-0.16498 0,0 1.28109,-0.76218 1.28109,-0.76218 l 0,0 c 0.12906,0.16052 0.30822,0.352 0.23229,0.40678 -1.14039,0.82282 -0.88389,0.8289 -1.50744,0.75728 -0.31961,-0.0861 -0.63391,-0.19027 -0.95482,-0.27124 -0.40907,-0.0856 -0.8199,0.0268 -1.22535,0.0882 -1.59887,0.25388 -3.21209,0.4177 -4.82707,0.52505 -0.78645,0.0459 -1.57233,0.10184 -2.3591,0.14207 -1.06997,0.0547 -2.14203,0.0759 -3.21,0.16898 -0.81712,0.0499 -1.64228,0.14989 -2.45966,0.061 -0.0482,-0.015 -0.10061,-0.0201 -0.14451,-0.0449 -0.257486,-0.14577 -0.0659,-0.36137 0.0838,-0.49333 0.26428,-0.21697 0.5287,-0.43272 0.79775,-0.64379 0.35056,-0.27546 0.68633,-0.56978 1.04426,-0.83619 0.43429,-0.35708 0.84681,-0.73896 1.24574,-1.13507 0.34423,-0.34151 0.68951,-0.68156 1.01098,-1.04472 0.3898,-0.41911 0.76325,-0.85227 1.1265,-1.2946 0.45867,-0.58765 0.93134,-1.16442 1.40068,-1.74347 0.36424,-0.46197 0.7174,-0.93702 1.00855,-1.44915 0,0 1.38472,-0.61072 1.38472,-0.61072 z"
       inkscape:connector-curvature="0" />
    <path
       style="fill:none;stroke:#000000;stroke-width:0.35433072;stroke-miterlimit:4;stroke-opacity:1;stroke-dasharray:none;stroke-dashoffset:0"
       id="path3863"
       d="m 77.315579,142.57267 c -0.062,0.49212 -0.10792,0.98629 -0.16805,1.47871 -0.0865,0.58758 -0.1511,1.17736 -0.21659,1.76751 -0.0471,0.45065 -0.11077,0.89939 -0.1854,1.34626 -0.0984,0.36279 -0.16133,0.73158 -0.2232,1.10171 -0.0718,0.35341 -0.0988,0.71266 -0.11653,1.07209 -0.0369,0.40417 -0.0738,0.80789 -0.0954,1.21325 -0.0352,0.55374 -0.0208,1.10675 0.0284,1.65888 0.0508,0.43729 0.10817,0.87383 0.14439,1.31264 0.0236,0.29952 -0.0282,0.59878 -0.0531,0.89696 -0.0103,0.36203 -0.0885,0.71556 -0.14981,1.07089 -0.0602,0.38487 -0.0754,0.77448 -0.0831,1.16333 -0.002,0.19204 0.002,0.0973 -0.0112,0.2843 0,0 -1.35234,0.67186 -1.35234,0.67186 l 0,0 c 0.0241,-0.17726 0.0164,-0.0851 0.021,-0.27658 0.013,-0.39526 0.0297,-0.79113 0.0799,-1.18371 0.051,-0.35224 0.14337,-0.69923 0.14907,-1.05703 0.0205,-0.29236 0.0679,-0.58429 0.062,-0.87719 -0.0229,-0.44182 -0.0674,-0.8819 -0.11856,-1.32129 -0.0568,-0.55513 -0.0747,-1.11212 -0.0529,-1.66994 0.0155,-0.40492 0.0494,-0.80855 0.0939,-1.2113 0.0101,-0.36462 0.032,-0.73027 0.10439,-1.08861 0.0676,-0.36982 0.1098,-0.7448 0.22776,-1.10397 0.0817,-0.44609 0.14274,-0.89597 0.20262,-1.34543 0.0736,-0.58906 0.12347,-1.18093 0.21623,-1.76772 0.0575,-0.48668 0.11237,-0.97447 0.13673,-1.46402 0,0 1.35963,-0.6716 1.35963,-0.6716 z"
       inkscape:connector-curvature="0" />
    <path
       style="fill:none;stroke:#000000;stroke-width:0.35433072;stroke-miterlimit:4;stroke-opacity:1;stroke-dasharray:none;stroke-dashoffset:0"
       id="path3865"
       d="m 92.358654,148.77848 c 0.15763,-0.33323 0.30589,-0.67128 0.44334,-1.01341 0.15881,-0.33579 0.27647,-0.68827 0.41726,-1.03129 0.1506,-0.32657 0.30607,-0.65126 0.48115,-0.96551 0.20606,-0.31445 0.39995,-0.63717 0.64327,-0.92468 0.53678,-0.51547 1.2175,-0.8849 1.91963,-1.13106 0.36625,-0.10493 0.75704,-0.10459 1.13472,-0.0889 0.59614,0.0149 1.18529,0.0818 1.76279,0.22907 0.35221,0.12617 0.66631,0.32897 0.942326,0.57872 0.23651,0.25544 0.42874,0.55091 0.59301,0.857 0.15907,0.35038 0.33213,0.69548 0.45811,1.05961 0.0832,0.24764 0.0962,0.50846 0.10464,0.76722 0.0164,0.27782 -0.0133,0.55304 -0.045,0.82849 -0.0314,0.34578 -0.12602,0.68162 -0.20534,1.01852 -0.0698,0.38444 -0.17707,0.75954 -0.34544,1.11234 -0.21899,0.37272 -0.48316,0.71795 -0.742576,1.06332 -0.21143,0.30483 -0.46046,0.57805 -0.72756,0.83425 -0.69269,0.65704 -1.54503,1.06384 -2.36903,1.53879 -0.40494,0.21915 -0.83666,0.38352 -1.26689,0.5453 -0.27909,0.13335 -0.57923,0.2086 -0.87357,0.29914 -0.34009,0.0768 -0.66781,0.2004 -1.01216,0.25725 -0.64726,0.0811 -0.46801,0.19172 1.10233,-0.9087 0.0562,-0.0394 0.39514,-0.0906 0.46098,-0.10541 0.48567,-0.0802 0.97337,-0.14993 1.46103,-0.21806 0.32147,-0.0552 0.64833,-0.0496 0.97153,-0.0834 0.31363,-0.0394 0.62813,-0.0664 0.94387,-0.0797 0.24734,-0.0287 0.48574,0.007 0.72872,0.0458 0.25014,0.0691 0.45896,0.22953 0.691596,0.33896 0.2289,0.11812 0.45192,0.24536 0.65879,0.39919 0.26757,0.1928 0.54717,0.36792 0.81583,0.55919 0.26579,0.18071 0.48907,0.40218 0.69628,0.64491 0.179,0.19967 0.35524,0.39984 0.50871,0.62006 0.18842,0.28548 0.31885,0.59958 0.40227,0.92993 0.0967,0.42119 0.13557,0.85153 0.16451,1.28169 0.0325,0.38168 0.0144,0.76163 -0.0212,1.14193 -0.0567,0.38819 -0.11326,0.77637 -0.1686,1.16477 -0.084,0.36274 -0.18594,0.72241 -0.30571,1.07511 -0.0919,0.31496 -0.22623,0.61277 -0.39324,0.89442 -0.16974,0.26387 -0.36119,0.51351 -0.55259,0.76201 -0.21848,0.26748 -0.48371,0.49411 -0.74953,0.7132 -0.21593,0.19024 -0.45731,0.34558 -0.69837,0.50096 -0.673476,0.36734 -1.316706,0.87665 -2.066986,1.09676 -0.2,0.0881 -0.40477,0.16402 -0.61788,0.21267 -0.22364,0.0533 -0.45536,0.0369 -0.68025,0.0759 -0.31879,0.0586 -0.64408,0.0624 -0.96711,0.0709 -0.49057,0.0223 -0.97877,-0.0183 -1.46331,-0.0914 -0.35346,-0.026 -0.66379,-0.15408 -0.95119,-0.35396 -0.13556,-0.10247 -0.2972,-0.16436 -0.4318,-0.26833 -0.0723,-0.0558 -0.13783,-0.11983 -0.20812,-0.1781 -0.27835,-0.2239 -0.5869,-0.39858 -0.90281,-0.56277 -0.26543,-0.14286 -0.5119,-0.23037 -0.70958,-0.46553 0,0 1.29422,-0.77986 1.29422,-0.77986 l 0,0 c 0.17911,0.20179 0.4359,0.29442 0.66681,0.42499 0.3253,0.16996 0.64373,0.35316 0.93185,0.5822 0.19765,0.16471 0.4127,0.29732 0.62977,0.43481 0.2757,0.17901 0.5751,0.27556 0.90387,0.30573 0.48013,0.0729 0.96383,0.0974 1.44918,0.0676 0.32503,-0.0134 0.6494,-0.0348 0.97025,-0.0914 0.22421,-0.0208 0.45123,-0.0285 0.66899,-0.092 0.20659,-0.0632 0.40631,-0.14588 0.61003,-0.21749 0.13358,-0.0488 0.26075,-0.10369 0.38804,-0.16734 0.0461,-0.023 0.181946,-0.0966 0.137616,-0.0703 -0.477276,0.28262 -1.621106,0.94154 -1.058676,0.61744 0.23722,-0.16373 0.49502,-0.29794 0.71144,-0.49105 0.26532,-0.21181 0.521986,-0.4335 0.760246,-0.67587 0.17892,-0.25593 0.38468,-0.49126 0.55981,-0.75109 0.17055,-0.27234 0.32061,-0.55515 0.40898,-0.86639 0.1229,-0.34649 0.21588,-0.7007 0.32563,-1.05167 0.0503,-0.38603 0.0993,-0.77222 0.16507,-1.15602 0.0352,-0.37435 0.0683,-0.74704 0.0352,-1.12347 -0.0208,-0.42147 -0.0548,-0.84414 -0.15756,-1.25483 -0.0729,-0.31335 -0.19507,-0.61163 -0.37919,-0.8773 -0.15502,-0.21373 -0.32739,-0.41173 -0.50198,-0.60957 -0.19594,-0.23548 -0.41818,-0.44064 -0.67103,-0.61551 -0.270856,-0.19084 -0.552506,-0.36554 -0.823506,-0.55617 -0.2041,-0.14362 -0.42232,-0.26515 -0.64471,-0.37813 -0.21685,-0.11215 -0.42357,-0.25863 -0.66916,-0.29895 -0.23464,-0.0363 -0.46858,-0.0429 -0.70575,-0.0243 -0.31293,0.0166 -0.62456,0.048 -0.93601,0.0823 -0.32027,0.0258 -0.64214,0.0347 -0.96034,0.0836 -0.48608,0.0666 -0.97431,0.12725 -1.45425,0.22981 -0.20581,0.0491 -0.18169,0.0416 -0.36818,0.0921 -0.0381,0.0103 -0.14452,0.0571 -0.11413,0.0319 1.07934,-0.89637 0.70216,-0.83646 1.31197,-0.9253 0.33783,-0.0723 0.66664,-0.18236 1.00085,-0.26939 0.2921,-0.0884 0.58231,-0.18232 0.86279,-0.30352 0.42633,-0.16373 0.85363,-0.32925 1.24936,-0.56005 -2.26132,1.31355 -0.61777,0.42005 -0.18232,-0.0308 0.27516,-0.24244 0.52851,-0.51285 0.74166,-0.81179 0.26127,-0.33599 0.51573,-0.67888 0.74503,-1.03755 0.19562,-0.33016 0.30029,-0.70555 0.3701,-1.08111 0.0773,-0.33027 0.1566,-0.66193 0.20194,-0.99795 0.0324,-0.26843 0.0653,-0.53573 0.0493,-0.80683 -0.004,-0.24545 -0.01,-0.4931 -0.0788,-0.73076 -0.11171,-0.35981 -0.27776,-0.69855 -0.43532,-1.04 -0.16415,-0.28693 -0.34662,-0.56962 -0.57568,-0.80911 -0.2606,-0.23261 -0.55827,-0.41947 -0.89375,-0.52454 -0.56609,-0.14832 -1.14787,-0.2075 -1.73313,-0.20657 -0.3781,0.005 -0.76614,0.0122 -1.12363,0.15023 -0.49231,0.19469 -1.11237,0.6141 0.98048,-0.60176 0.0351,-0.0204 -0.0698,0.0416 -0.10474,0.0623 -0.0361,0.0217 -0.074,0.0406 -0.10826,0.065 -0.0381,0.0272 -0.0722,0.0597 -0.10836,0.0895 -0.25723,0.27256 -0.44998,0.58687 -0.66058,0.89528 -0.0575,0.10523 -0.12615,0.20423 -0.18086,0.31091 -0.10758,0.20978 -0.19223,0.43332 -0.30439,0.64114 -0.15638,0.33789 -0.25197,0.69945 -0.42617,1.02991 -0.13377,0.34094 -0.28469,0.67374 -0.41652,1.01534 0,0 -1.38437,0.62633 -1.38437,0.62633 z"
       inkscape:connector-curvature="0" />
    <path
       style="fill:none;stroke:#000000;stroke-width:0.35433072;stroke-miterlimit:4;stroke-opacity:1;stroke-dasharray:none;stroke-dashoffset:0"
       id="path3867"
       d="m 108.7111,146.84469 c 0.068,-0.45066 0.14893,-0.89919 0.21344,-1.35037 0.0457,-0.4392 0.10673,-0.87545 0.24281,-1.29631 0.10386,-0.30218 0.26776,-0.56861 0.51225,-0.77445 0.96148,-0.64487 1.30876,-0.87367 2.26449,-0.99015 0.61388,-0.0647 1.22774,-0.10439 1.845,-0.10199 0.42528,-0.0209 0.8377,0.061 1.24273,0.1824 0.31958,0.085 0.62482,0.21321 0.93772,0.31803 0.43935,0.15578 0.89062,0.2774 1.34128,0.39598 0.42145,0.13238 0.8588,0.21128 1.27894,0.34576 0.42577,0.13851 0.84927,0.28987 1.25995,0.46927 0.37038,0.16155 0.6301,0.30506 0.89942,0.60843 0.21098,0.24686 0.32032,0.54869 0.42481,0.85065 0.0936,0.26335 0.11348,0.54098 0.12614,0.81762 0.004,0.32936 -0.0711,0.64424 -0.17445,0.95424 -0.16622,0.43123 -0.37413,0.84586 -0.58366,1.25743 -0.25185,0.48847 -0.52657,0.96452 -0.7912,1.44606 -0.27119,0.44401 -0.5788,0.86473 -0.90499,1.2696 -0.26471,0.32123 -0.50206,0.66326 -0.7584,0.99094 -0.24933,0.28971 -0.48542,0.59029 -0.73815,0.87706 -0.26878,0.29671 -0.54721,0.58508 -0.8369,0.86142 -0.34527,0.31746 -0.65773,0.66746 -0.98633,1.00153 -0.33131,0.35773 -0.6708,0.70748 -1.01153,1.05619 -0.31935,0.30602 -0.6338,0.61559 -0.93687,0.93789 -0.36929,0.41549 -0.74307,0.82703 -1.10275,1.25092 -0.26413,0.31469 -0.52448,0.63331 -0.75758,0.97185 -0.20673,0.32895 -0.42611,0.64914 -0.65788,0.9609 -0.19416,0.23944 -0.37955,0.48622 -0.58061,0.71997 -0.16998,0.19779 -0.33816,0.3967 -0.50238,0.5993 -0.16921,0.18713 -0.30043,0.40247 -0.44998,0.60459 -0.14101,0.21707 -0.30227,0.41849 -0.45864,0.62421 -0.15312,0.22029 -0.32243,0.42844 -0.46541,0.65563 -0.12172,0.28132 -0.19299,0.58235 -0.29194,0.87296 -0.065,0.16079 -0.13974,0.31726 -0.21219,0.47472 -0.0477,0.10357 -0.053,0.12033 -0.0534,0.1199 -0.0225,-0.027 -0.0268,-0.065 -0.0402,-0.0975 -0.43455,0.22702 -0.8691,0.45403 -1.30365,0.68105 0.0232,-0.017 0.0482,-0.0318 0.0695,-0.0511 0.13013,-0.11723 0.24711,-0.24618 0.38146,-0.36014 0.81763,-0.61971 1.72637,-1.12285 2.70887,-1.41475 0.76571,-0.25914 1.55447,-0.42818 2.34663,-0.58168 0.59057,-0.15637 1.18373,-0.30321 1.77464,-0.45794 0.33794,-0.11064 0.69079,-0.0716 1.03924,-0.0555 0.0659,0.003 0.13216,0.002 0.19779,0.008 0.18656,0.0198 0.37083,0.0574 0.55682,0.082 0.30076,0.0398 0.60202,0.0698 0.90415,0.0966 0.49223,0.0279 0.9349,0.22242 1.36438,0.44856 0.37174,0.1472 0.68764,0.38337 1.00893,0.61442 0.62407,0.42967 1.35685,0.67138 2.06727,0.91817 0.59914,0.18964 1.22514,0.46279 1.8667,0.39999 0.44041,-0.10963 0.86448,-0.27127 1.29847,-0.40437 0.0733,-0.0203 0.14662,-0.0407 0.21993,-0.061 0,0 -1.18364,0.91074 -1.18364,0.91074 l 0,0 c -0.0714,0.0205 -0.14283,0.041 -0.21424,0.0615 -0.43891,0.13797 -0.87013,0.3202 -1.32915,0.37772 -0.64493,-0.0161 -1.25217,-0.26493 -1.8532,-0.47683 -0.46541,-0.16735 -0.50895,-0.18101 -0.9797,-0.35859 -0.40363,-0.15226 -0.80697,-0.30035 -1.15378,-0.56432 -0.32007,-0.22119 -0.63669,-0.44494 -0.99745,-0.59798 -0.41726,-0.21463 -0.84862,-0.38131 -1.32303,-0.4078 -0.55577,-0.059 -1.10985,-0.14519 -1.66836,-0.16997 -0.34232,-0.0124 -0.68202,-0.0195 -1.01232,0.089 -0.5804,0.13827 -1.15833,0.28615 -1.73935,0.42181 -0.79626,0.16017 -1.58597,0.34867 -2.35617,0.6094 -0.10526,0.0352 -0.21172,0.067 -0.31578,0.10566 -0.0979,0.0363 -0.19425,0.077 -0.28984,0.11908 -0.0887,0.039 -0.34499,0.1756 -0.2628,0.12426 0.346,-0.2161 0.70224,-0.41539 1.05552,-0.61937 0.0614,-0.0355 -0.12043,0.0748 -0.1797,0.11367 -0.0517,0.0339 -0.10215,0.0697 -0.15322,0.10462 -0.10448,0.0861 -0.20836,0.16873 -0.30473,0.26381 -0.0248,0.0244 -0.0523,0.0464 -0.0743,0.0734 -0.0198,0.0244 -0.0228,0.0643 -0.0501,0.0798 -0.45404,0.25856 -0.92243,0.49108 -1.38364,0.73663 -0.0236,-0.036 -0.0565,-0.0673 -0.0707,-0.10791 -0.0205,-0.0587 0.26161,-0.51968 0.27989,-0.61101 0.10948,-0.29342 0.19075,-0.59428 0.27759,-0.89436 0.12219,-0.24435 0.30466,-0.44715 0.459,-0.67129 0.14457,-0.21259 0.32344,-0.39814 0.45438,-0.62076 0.14185,-0.21156 0.29406,-0.41802 0.45231,-0.61728 0.16496,-0.20078 0.32227,-0.40706 0.49693,-0.59972 0.19844,-0.23941 0.40183,-0.47458 0.59617,-0.71802 0.23674,-0.30629 0.45895,-0.62386 0.66115,-0.95411 0.23341,-0.34576 0.48717,-0.67622 0.76153,-0.99091 0.36135,-0.42321 0.73584,-0.83454 1.09835,-1.25678 0.30106,-0.32235 0.60014,-0.64569 0.93133,-0.93795 0.33785,-0.35443 0.6941,-0.69116 1.01689,-1.06008 0.32795,-0.33242 0.6389,-0.68051 0.97549,-1.00453 0.29577,-0.26535 0.56638,-0.55711 0.83839,-0.84649 0.2554,-0.28279 0.49243,-0.58057 0.74079,-0.86933 0.26632,-0.32634 0.50504,-0.67326 0.7727,-0.99861 0.3278,-0.39768 0.63138,-0.81458 0.91527,-1.24477 0.26448,-0.48021 0.53981,-0.95447 0.79194,-1.4414 0.20695,-0.40352 0.40876,-0.81107 0.57804,-1.23207 0.10585,-0.29329 0.18832,-0.58655 0.19381,-0.90104 -0.009,-0.26304 -0.0233,-0.52778 -0.10452,-0.78034 -0.0934,-0.28435 -0.19295,-0.56764 -0.3923,-0.79781 -0.26189,-0.28175 -0.50447,-0.40493 -0.85546,-0.56074 -0.40832,-0.17478 -0.82844,-0.32279 -1.25286,-0.45333 -0.42179,-0.11961 -0.8482,-0.22321 -1.26901,-0.34691 -0.4548,-0.12435 -0.91236,-0.24169 -1.35792,-0.39672 -0.3102,-0.10782 -0.61831,-0.22243 -0.9349,-0.3109 -0.39347,-0.10755 -0.78984,-0.17846 -1.20028,-0.16221 -0.61749,-0.003 -1.23142,0.0476 -1.84361,0.12813 -0.19189,0.0316 -0.38132,0.0658 -0.5682,0.1208 -0.50411,0.14834 -1.25077,0.72728 0.90741,-0.58085 -0.27116,0.15608 -0.44606,0.40453 -0.56181,0.69296 -0.15037,0.41129 -0.22298,0.8406 -0.26631,1.2759 -0.0618,0.44541 -0.146,0.88824 -0.18455,1.3365 0,0 -1.36278,0.67018 -1.36278,0.67018 z"
       inkscape:connector-curvature="0" />
  </g>
</svg>
