<?xml version="1.0" encoding="UTF-8" standalone="no"?>
<!-- Created with Inkscape (http://www.inkscape.org/) -->

<svg
   xmlns:dc="http://purl.org/dc/elements/1.1/"
   xmlns:cc="http://creativecommons.org/ns#"
   xmlns:rdf="http://www.w3.org/1999/02/22-rdf-syntax-ns#"
   xmlns:svg="http://www.w3.org/2000/svg"
   xmlns="http://www.w3.org/2000/svg"
   xmlns:sodipodi="http://sodipodi.sourceforge.net/DTD/sodipodi-0.dtd"
   xmlns:inkscape="http://www.inkscape.org/namespaces/inkscape"
   width="960.23621"
   height="719.29132"
   id="svg2"
   sodipodi:version="0.32"
   inkscape:version="0.48.3.1 r9886"
   sodipodi:docname="cover.svg"
   inkscape:output_extension="org.inkscape.output.svg.inkscape"
   inkscape:export-filename="/home/ralsina/Desktop/proyectos/rst/trunk/rst2pdf/tests/input/background.png"
   inkscape:export-xdpi="120"
   inkscape:export-ydpi="120"
   version="1.0">
  <defs
     id="defs4">
    <linearGradient
       id="linearGradient3155">
      <stop
         style="stop-color:#000000;stop-opacity:1;"
         offset="0"
         id="stop3157" />
      <stop
         id="stop3163"
         offset="0.06521739"
         style="stop-color:#000000;stop-opacity:0.49803922;" />
      <stop
         style="stop-color:#000000;stop-opacity:0.24705882;"
         offset="0.14650284"
         id="stop3165" />
      <stop
         style="stop-color:#000000;stop-opacity:0;"
         offset="1"
         id="stop3159" />
    </linearGradient>
    <inkscape:perspective
       sodipodi:type="inkscape:persp3d"
       inkscape:vp_x="0 : 526.18109 : 1"
       inkscape:vp_y="0 : 1000 : 0"
       inkscape:vp_z="744.09448 : 526.18109 : 1"
       inkscape:persp3d-origin="372.04724 : 350.78739 : 1"
       id="perspective10" />
  </defs>
  <sodipodi:namedview
     id="base"
     pagecolor="#ffffff"
     bordercolor="#666666"
     borderopacity="1.0"
     gridtolerance="10000"
     guidetolerance="10"
     objecttolerance="10"
     inkscape:pageopacity="0.0"
     inkscape:pageshadow="2"
     inkscape:zoom="0.86411002"
     inkscape:cx="469.59697"
     inkscape:cy="443.37511"
     inkscape:document-units="mm"
     inkscape:current-layer="layer1"
     showgrid="false"
     inkscape:window-width="977"
     inkscape:window-height="666"
     inkscape:window-x="662"
     inkscape:window-y="82"
     units="mm"
     inkscape:window-maximized="0" />
  <metadata
     id="metadata7">
    <rdf:RDF>
      <cc:Work
         rdf:about="">
        <dc:format>image/svg+xml</dc:format>
        <dc:type
           rdf:resource="http://purl.org/dc/dcmitype/StillImage" />
      </cc:Work>
    </rdf:RDF>
  </metadata>
  <g
     inkscape:label="Layer 1"
     inkscape:groupmode="layer"
     id="layer1"
     transform="translate(0,400.39368)">
    <g
       transform="matrix(2.3894753,0,0,2.3877578,-1119.9647,-2382.9454)"
       id="layer1-3"
       inkscape:label="レイヤー 1">
      <g
         transform="matrix(0.2309647,0,0,0.2309647,483.52852,671.52202)"
         id="g3187">
        <path
           d="m 173.76722,754.13834 36.22758,0 0,187.43743 -36.22758,0 0,-187.43743 z"
           style="fill:#ff6410;fill-opacity:1;fill-rule:nonzero;stroke:#ff6410;stroke-width:0.0727541px;stroke-linecap:round;stroke-linejoin:round;stroke-opacity:1;stroke-dasharray:none"
           id="2"
           inkscape:connector-curvature="0" />
        <path
           d="m 236.47868,754.13834 36.16076,0 0,187.43743 -36.16076,0 0,-187.43743 z"
           style="fill:#ff6410;fill-opacity:1;fill-rule:nonzero;stroke:#ff6410;stroke-width:0.0727541px;stroke-linecap:round;stroke-linejoin:round;stroke-opacity:1;stroke-dasharray:none"
           id="3"
           inkscape:connector-curvature="0" />
        <path
           d="m 364.59561,786.53271 0,155.04306 -36.15393,0 0,-155.04306 -32.01249,0 0,-32.39437 101.27116,0 0,32.39437 -33.10474,0 z"
           style="fill:#ff6410;fill-opacity:1;fill-rule:nonzero;stroke:#ff6410;stroke-width:0.0727541px;stroke-linecap:round;stroke-linejoin:round;stroke-opacity:1;stroke-dasharray:none"
           id="4"
           inkscape:connector-curvature="0" />
        <path
           d="m 147.28334,941.79028 0,-187.21637 -36.3079,0 -108.6896726,188.45621 39.2834106,0 69.479912,-124.25019 0,123.01035 36.01318,0 z"
           style="fill:#ff6410;fill-opacity:1;fill-rule:nonzero;stroke:#ff6410;stroke-width:0.0727541px;stroke-linecap:round;stroke-linejoin:round;stroke-opacity:1;stroke-dasharray:none"
           id="5"
           inkscape:connector-curvature="0" />
        <path
           d="m 315.92342,817.46639 0,0 0,0 0,0 0,0 0,0 z"
           style="fill:#ff630f;fill-opacity:1;fill-rule:nonzero;stroke:#ff630f;stroke-width:0.0727541px;stroke-linecap:round;stroke-linejoin:round;stroke-opacity:1;stroke-dasharray:none"
           id="6"
           inkscape:connector-curvature="0" />
        <path
           d="m 75.980859,904.81214 0,0 0,0 0,0 0,0 0,0 z"
           style="fill:#ff630f;fill-opacity:1;fill-rule:nonzero;stroke:#ff630f;stroke-width:0.0727541px;stroke-linecap:round;stroke-linejoin:round;stroke-opacity:1;stroke-dasharray:none"
           id="7"
           inkscape:connector-curvature="0" />
        <path
           d="m 215.52345,914.85744 -5.36105,1.94352 -16.37148,4.95891 -21.16963,4.89191 -20.01034,2.74766 -18.62309,0.80412 -16.807,-1.27333 -14.62245,-3.2165 -11.928462,-5.16004 -7.130138,-4.95916 -1.876396,-2.14432 0,0.93814 0,4.28899 0.938064,4.15485 0,0.80407 0.938332,2.47956 5.160014,6.70133 10.474247,6.91573 14.113019,4.42293 17.39005,2.14451 19.93663,-0.67019 22.11458,-2.74757 23.57546,-5.29399 18.47571,-5.6292 6.03124,-2.21157 6.03129,-2.21133 17.82552,-7.63955 21.4646,-11.13778 18.69679,-12.00876 15.50031,-12.59191 11.92845,-12.73938 8.00133,-12.59194 3.55177,-11.94169 0,-8.44383 -0.93813,-2.54658 0,-0.80412 -1.94344,-3.68567 -2.61349,-3.4178 -0.67012,-0.67006 0,2.81454 -2.27845,8.36998 -5.83025,11.64711 -9.16747,11.86807 -12.07584,11.71399 -14.69613,11.35888 -17.169,10.76917 -19.35355,9.90451 -15.71475,6.70143 -5.36105,1.94344 0,0 z"
           style="fill:#ff6410;fill-opacity:1;fill-rule:nonzero;stroke:#ff6410;stroke-width:0.0727541px;stroke-linecap:round;stroke-linejoin:round;stroke-opacity:1;stroke-dasharray:none"
           id="8"
           inkscape:connector-curvature="0" />
        <path
           d="m 314.90484,839.8825 8.14889,-2.94863 -7.13031,-19.65512 0.6702,1.74222 0.93832,9.17434 -1.80955,9.67662 -0.73703,2.01057 0,0 z"
           style="fill:#ff6410;fill-opacity:1;fill-rule:nonzero;stroke:#ff6410;stroke-width:0.0727541px;stroke-linecap:round;stroke-linejoin:round;stroke-opacity:1;stroke-dasharray:none"
           id="9"
           inkscape:connector-curvature="0" />
        <path
           d="m 75.91374,904.59772 7.123541,19.72197 8.148924,-2.94843 -1.340213,-0.80435 -3.819832,-2.61341 -4.288802,-3.95384 -3.417794,-4.42294 -1.943436,-3.61862 -0.669996,-1.34034 0,0 z"
           style="fill:#ff6410;fill-opacity:1;fill-rule:nonzero;stroke:#ff6410;stroke-width:0.0727541px;stroke-linecap:round;stroke-linejoin:round;stroke-opacity:1;stroke-dasharray:none"
           id="10"
           inkscape:connector-curvature="0" />
        <path
           d="m 184.6034,829.91089 5.36107,-1.94352 16.36467,-5.02603 21.02911,-5.09289 20.0035,-3.08283 18.40865,-1.27326 16.65963,0.73722 14.33427,2.61351 11.78773,4.48999 6.83543,4.42296 1.87639,1.87638 0,-0.93833 -1.34043,-9.10034 -0.66992,-0.8712 -0.93835,-2.74759 -5.49513,-7.27773 -10.68866,-7.71321 -14.40802,-5.16023 -17.6045,-2.68044 -20.15772,0 -22.18825,2.41261 -23.71605,5.02606 -18.5562,5.562 -6.03124,2.21144 -6.03122,2.27847 -17.75187,7.64631 -21.31708,11.42587 -18.54939,12.37059 -15.352903,13.18178 -11.71404,13.31551 -7.713208,13.3223 -3.283807,12.73949 0.670201,9.10035 1.005168,2.68057 0,0.87118 2.144495,4.08784 2.747577,3.81978 0.670185,0.67022 0,-2.61365 2.412406,-7.79368 6.098298,-11.06391 9.314876,-11.20482 12.297092,-11.28498 14.91042,-10.91654 17.24268,-10.48102 19.35354,-9.68346 15.78842,-6.63429 5.36129,-1.94352 0,0 z"
           style="fill:#ffffff;fill-opacity:1;fill-rule:nonzero;stroke:#ffffff;stroke-width:0.0727541px;stroke-linecap:round;stroke-linejoin:round;stroke-opacity:1;stroke-dasharray:none"
           id="11"
           inkscape:connector-curvature="0" />
      </g>
    </g>
    <rect
       style="fill:none;stroke:#000000;stroke-width:0.20712139;stroke-miterlimit:4;stroke-opacity:1;stroke-dasharray:none;stroke-dashoffset:0"
       id="rect3001"
       width="960.02911"
       height="35.225948"
       x="0.10356069"
       y="283.56815" />
    <rect
       style="fill:none;stroke:#000000;stroke-width:0.20712139;stroke-miterlimit:4;stroke-opacity:1;stroke-dasharray:none;stroke-dashoffset:0"
       id="rect3001-0"
       width="960.02911"
       height="35.225948"
       x="0.10356069"
       y="-400.29013" />
    <rect
       style="fill:none;stroke:#000000;stroke-width:0.34834674;stroke-miterlimit:4;stroke-opacity:1;stroke-dasharray:none;stroke-dashoffset:0"
       id="rect3816"
       width="35.084721"
       height="718.94299"
       x="0.17417337"
       y="-400.21951" />
    <rect
       style="fill:none;stroke:#000000;stroke-width:0.34834677;stroke-miterlimit:4;stroke-opacity:1;stroke-dasharray:none;stroke-dashoffset:0"
       id="rect3816-6"
       width="35.084724"
       height="718.94299"
       x="924.97729"
       y="-400.21951" />
    <rect
       style="fill:none;stroke:#000000;stroke-width:0.32257378;stroke-miterlimit:4;stroke-opacity:1;stroke-dasharray:none;stroke-dashoffset:0"
       id="rect3836"
       width="29.677427"
       height="29.677425"
       x="37.587807"
       y="251.87675" />
    <path
       style="fill:none;stroke:#000000;stroke-width:0.35433072;stroke-miterlimit:4;stroke-opacity:1;stroke-dasharray:none;stroke-dashoffset:0"
       id="path3859"
       d="m 39.438016,263.30693 c 0.066,-0.30847 0.15826,-0.61037 0.26564,-0.9067 0.0946,-0.3091 0.24099,-0.59741 0.37557,-0.89012 0.12695,-0.27192 0.28504,-0.52522 0.45369,-0.77257 0.46441,-0.72055 0.97267,-0.80461 1.85195,-1.30326 0.32423,-0.0853 0.66166,-0.089 0.99468,-0.0939 0.36393,-0.013 0.7261,-7.8e-4 1.08383,0.0695 0.3754,0.0841 0.66167,0.32525 0.93097,0.58565 0.2201,0.24687 0.40034,0.52572 0.58298,0.80064 0.17483,0.28691 0.34364,0.57305 0.46969,0.88528 0.12036,0.36134 0.15967,0.74137 0.22212,1.11511 0.0823,0.41633 0.10929,0.83936 0.12676,1.26243 0.0106,0.44775 0.0228,0.89627 0.003,1.34385 -0.0105,0.32696 -0.09,0.64523 -0.14233,0.96672 -0.0199,0.24791 -0.10706,0.48009 -0.20861,0.70472 -0.12637,0.22644 -0.25719,0.4509 -0.3949,0.67067 -0.10296,0.19838 -0.25464,0.3545 -0.41117,0.50981 -0.14828,0.16356 -0.29288,0.33068 -0.4536,0.48233 -0.22627,0.20869 -0.47314,0.39285 -0.70566,0.59415 -0.26459,0.22584 -0.53856,0.43956 -0.81345,0.65259 -0.28968,0.2241 -0.60837,0.40521 -0.90418,0.62056 -0.2668,0.21607 -0.56131,0.39304 -0.84271,0.58859 -0.64944,0.49831 -1.38758,0.8629 -2.09663,1.26656 2.89142,-1.65801 0.0951,-0.0553 -0.21824,0.12795 -0.40026,0.23411 0.80306,-0.46386 1.2065,-0.69245 0.0278,-0.0157 -0.0517,0.0377 -0.0793,0.0538 -0.97707,0.56959 -0.94077,0.54874 -1.4586,0.84128 -0.19181,0.0676 -0.37642,0.15236 -0.56533,0.22759 -0.10965,0.0405 -0.35464,0.2494 -0.47229,0.12693 -0.0234,-0.0244 -0.0341,-0.0584 -0.0511,-0.0877 0.003,-0.0414 -0.011,-0.0887 0.0105,-0.12434 0.0227,-0.0377 0.071,-0.0522 0.10921,-0.074 1.02588,-0.58649 1.17146,-0.71344 1.98207,-1.02832 0.0641,-0.0205 0.12693,-0.0458 0.19241,-0.0614 0.11819,-0.0282 0.38214,-0.062 0.50032,-0.0797 0.25199,-0.0376 0.50308,-0.0768 0.75591,-0.10857 0.4218,-0.0437 0.84599,-0.0761 1.26953,-0.0475 0.5488,0.023 1.09183,0.0787 1.63451,0.1615 0.55132,0.0336 0.98148,0.33706 1.46247,0.5744 1.156,0.50164 2.32447,0.97352 3.49112,1.45018 0.0751,0.032 0.87037,0.37272 1.00484,0.42309 0.31079,0.11642 0.23313,0.16705 0.35108,0.0127 0,0 -1.1997,0.93362 -1.1997,0.93362 l 0,0 c -0.46115,-0.14676 -0.87315,-0.42056 -1.32648,-0.58743 -1.17423,-0.49293 -2.36592,-0.94194 -3.54456,-1.42386 -0.47222,-0.21874 -0.92241,-0.48775 -1.45317,-0.52828 -0.54096,-0.0834 -1.08469,-0.12358 -1.63166,-0.14318 -0.4185,-0.006 -0.83713,0.0157 -1.25276,0.0664 -0.4816,0.0633 -0.97438,0.11386 -1.43224,0.28336 -0.11812,0.0468 -0.2472,0.0965 -0.36367,0.14769 -0.059,0.0259 -0.23062,0.11454 -0.17553,0.0811 0.37817,-0.22974 0.76381,-0.44697 1.14572,-0.67045 -0.0347,0.0184 -0.0649,0.0543 -0.10412,0.0551 -0.0333,6.4e-4 -0.0572,-0.0343 -0.0858,-0.0514 -0.0124,-0.0156 -0.032,-0.0275 -0.0371,-0.0468 -0.003,-0.0127 0.0368,-0.0193 0.089,-0.0417 0.10852,-0.0466 0.21077,-0.10656 0.32104,-0.14928 0.18574,-0.0804 0.37908,-0.14467 0.55657,-0.24263 0.48425,-0.26473 0.26756,-0.14722 -1.1351,0.66346 -0.028,0.0162 0.0539,-0.0356 0.0817,-0.0521 0.45977,-0.27137 0.93189,-0.52257 1.38098,-0.81127 0.0698,-0.0449 -3.62633,2.10187 0.21763,-0.12116 -2.30672,1.34063 -0.9556,0.60065 -0.47415,0.22735 0.27529,-0.20044 0.56692,-0.37511 0.84029,-0.57831 0.27802,-0.2443 0.61546,-0.4029 0.91048,-0.62581 0.27265,-0.21116 0.54231,-0.42547 0.81093,-0.63977 0.22439,-0.20927 0.47497,-0.38524 0.69884,-0.59501 0.17213,-0.13376 0.31721,-0.29986 0.45329,-0.46905 0.15078,-0.15486 0.32955,-0.28463 0.42702,-0.48359 0.14514,-0.21151 0.2628,-0.4397 0.40364,-0.65406 0.10992,-0.20606 0.20195,-0.42988 0.22645,-0.66344 0.0507,-0.32124 0.14394,-0.63528 0.16533,-0.96068 0.029,-0.443 0.009,-0.88746 0.003,-1.33107 -0.0153,-0.41682 -0.0415,-0.83376 -0.11998,-1.24429 -0.062,-0.36268 -0.10494,-0.73034 -0.21423,-1.08303 -0.11998,-0.30349 -0.28241,-0.58154 -0.45303,-0.8589 -0.17707,-0.26536 -0.35362,-0.53348 -0.56381,-0.77402 -0.25386,-0.2427 -0.52823,-0.45027 -0.88395,-0.51052 -0.35284,-0.0557 -0.70847,-0.0572 -1.06498,-0.046 -0.32488,0.0111 -0.65988,0.0181 -0.96322,0.1483 0.38985,-0.22923 0.77977,-0.45833 1.16954,-0.68768 0.0372,-0.0219 -0.0759,0.0413 -0.11181,0.0653 -0.14647,0.0981 -0.25124,0.23423 -0.34561,0.38098 -0.16197,0.24621 -0.33873,0.48195 -0.46487,0.75037 -0.13106,0.29329 -0.29263,0.57417 -0.38527,0.88283 -0.10758,0.28435 -0.1986,0.57398 -0.2649,0.87074 0,0 -1.36278,0.67018 -1.36278,0.67018 z"
       inkscape:connector-curvature="0" />
    <path
       style="fill:none;stroke:#000000;stroke-width:0.35433072;stroke-miterlimit:4;stroke-opacity:1;stroke-dasharray:none;stroke-dashoffset:0"
       id="path3861"
       d="m 59.047956,258.96306 c -0.32019,0.51183 -0.67191,1.00327 -1.04139,1.48046 -0.46897,0.57919 -0.9424,1.15458 -1.39993,1.74293 -0.35396,0.44519 -0.72359,0.87742 -1.10555,1.29873 -0.32262,0.36565 -0.66558,0.71162 -1.01307,1.05343 -0.39774,0.39556 -0.80978,0.77602 -1.234,1.14294 -0.34943,0.27387 -0.6923,0.55566 -1.03586,0.83677 -0.26613,0.21141 -0.53014,0.42528 -0.79332,0.64033 -0.0822,0.0725 -0.11874,0.0991 -0.18705,0.1778 -0.0153,0.0176 -0.0274,0.0378 -0.0419,0.0562 -0.003,0.004 -0.0146,0.0107 -0.0101,0.01 0.10912,-0.0267 -0.10133,-0.0288 0.14469,-0.005 0.7873,0.0733 1.57783,-0.003 2.36496,-0.0422 1.827,-0.1068 3.65638,-0.15033 5.48389,-0.2485 1.65252,-0.10789 3.30021,-0.31103 4.92729,-0.6198 0.4426,-0.0855 0.86614,-0.20702 1.30725,-0.0683 0.31851,0.0851 0.62817,0.20438 0.95224,0.26739 0.55567,-0.12708 0.20693,-0.0568 -1.1479,0.65473 -0.0113,0.006 0.0257,-0.0213 0.02,-0.0328 -0.0302,-0.0606 -0.0791,-0.10999 -0.11865,-0.16498 0,0 1.28109,-0.76218 1.28109,-0.76218 l 0,0 c 0.12906,0.16052 0.30822,0.352 0.23229,0.40678 -1.14039,0.82282 -0.88389,0.8289 -1.50744,0.75728 -0.31961,-0.0861 -0.63391,-0.19027 -0.95482,-0.27124 -0.40907,-0.0856 -0.8199,0.0268 -1.22535,0.0882 -1.59887,0.25388 -3.21209,0.4177 -4.82707,0.52505 -0.78645,0.0459 -1.57233,0.10184 -2.3591,0.14207 -1.06997,0.0547 -2.14203,0.0759 -3.21,0.16898 -0.81712,0.0499 -1.64228,0.14989 -2.45966,0.061 -0.0482,-0.015 -0.10061,-0.0201 -0.14451,-0.0449 -0.25749,-0.14577 -0.0659,-0.36137 0.0838,-0.49333 0.26428,-0.21697 0.5287,-0.43272 0.79775,-0.64379 0.35056,-0.27546 0.68633,-0.56978 1.04426,-0.83619 0.43429,-0.35708 0.84681,-0.73896 1.24574,-1.13507 0.34423,-0.34151 0.68951,-0.68156 1.01098,-1.04472 0.3898,-0.41911 0.76325,-0.85227 1.1265,-1.2946 0.45867,-0.58765 0.93134,-1.16442 1.40068,-1.74347 0.36424,-0.46197 0.7174,-0.93702 1.00855,-1.44915 0,0 1.38472,-0.61072 1.38472,-0.61072 z"
       inkscape:connector-curvature="0" />
    <path
       style="fill:none;stroke:#000000;stroke-width:0.35433072;stroke-miterlimit:4;stroke-opacity:1;stroke-dasharray:none;stroke-dashoffset:0"
       id="path3863"
       d="m 59.902656,259.64864 c -0.062,0.49212 -0.10792,0.98629 -0.16805,1.47871 -0.0865,0.58758 -0.1511,1.17736 -0.21659,1.76751 -0.0471,0.45065 -0.11077,0.89939 -0.1854,1.34626 -0.0984,0.36279 -0.16133,0.73158 -0.2232,1.10171 -0.0718,0.35341 -0.0988,0.71266 -0.11653,1.07209 -0.0369,0.40417 -0.0738,0.80789 -0.0954,1.21325 -0.0352,0.55374 -0.0208,1.10675 0.0284,1.65888 0.0508,0.43729 0.10817,0.87383 0.14439,1.31264 0.0236,0.29952 -0.0282,0.59878 -0.0531,0.89696 -0.0103,0.36203 -0.0885,0.71556 -0.14981,1.07089 -0.0602,0.38487 -0.0754,0.77448 -0.0831,1.16333 -0.002,0.19204 0.002,0.0973 -0.0112,0.2843 0,0 -1.35234,0.67186 -1.35234,0.67186 l 0,0 c 0.0241,-0.17726 0.0164,-0.0851 0.021,-0.27658 0.013,-0.39526 0.0297,-0.79113 0.0799,-1.18371 0.051,-0.35224 0.14337,-0.69923 0.14907,-1.05703 0.0205,-0.29236 0.0679,-0.58429 0.062,-0.87719 -0.0229,-0.44182 -0.0674,-0.8819 -0.11856,-1.32129 -0.0568,-0.55513 -0.0747,-1.11212 -0.0529,-1.66994 0.0155,-0.40492 0.0494,-0.80855 0.0939,-1.2113 0.0101,-0.36462 0.032,-0.73027 0.10439,-1.08861 0.0676,-0.36982 0.1098,-0.7448 0.22776,-1.10397 0.0817,-0.44609 0.14274,-0.89597 0.20262,-1.34543 0.0736,-0.58906 0.12347,-1.18093 0.21623,-1.76772 0.0575,-0.48668 0.11237,-0.97447 0.13673,-1.46402 0,0 1.35963,-0.6716 1.35963,-0.6716 z"
       inkscape:connector-curvature="0" />
  </g>
</svg>
